<svg xmlns="http://www.w3.org/2000/svg" xmlns:xlink="http://www.w3.org/1999/xlink"><defs><style>
    .sprite-symbol-usage {display: none;}
    .sprite-symbol-usage:target {display: inline;}
  </style><symbol viewBox="0 0 512.002 512.002" id="arrow-next"><path d="M388.425 241.951L151.609 5.79c-7.759-7.733-20.321-7.72-28.067.04-7.74 7.759-7.72 20.328.04 28.067l222.72 222.105-222.728 222.104c-7.759 7.74-7.779 20.301-.04 28.061a19.8 19.8 0 0014.057 5.835 19.79 19.79 0 0014.017-5.795l236.817-236.155c3.737-3.718 5.834-8.778 5.834-14.05s-2.103-10.326-5.834-14.051z" /></symbol><symbol viewBox="0 0 443.52 443.52" id="arrow-prev"><path d="M143.492 221.863L336.226 29.129c6.663-6.664 6.663-17.468 0-24.132-6.665-6.662-17.468-6.662-24.132 0l-204.8 204.8c-6.662 6.664-6.662 17.468 0 24.132l204.8 204.8c6.78 6.548 17.584 6.36 24.132-.42 6.387-6.614 6.387-17.099 0-23.712L143.492 221.863z" /></symbol><symbol viewBox="0 0 409.806 409.806" id="close"><path d="M228.929 205.01L404.596 29.343c6.78-6.548 6.968-17.352.42-24.132-6.548-6.78-17.352-6.968-24.132-.42-.142.137-.282.277-.42.42L204.796 180.878 29.129 5.21c-6.78-6.548-17.584-6.36-24.132.42-6.388 6.614-6.388 17.099 0 23.713L180.664 205.01 4.997 380.677c-6.663 6.664-6.663 17.468 0 24.132 6.664 6.662 17.468 6.662 24.132 0l175.667-175.667 175.667 175.667c6.78 6.548 17.584 6.36 24.132-.42 6.387-6.614 6.387-17.099 0-23.712L228.929 205.01z" /></symbol><symbol fill="none" viewBox="0 0 12 26" id="fb"><path clip-rule="evenodd" d="M11.9 8.5h-4V5.9c0-1 .7-1.2 1.1-1.2h2.8V.3H7.9C3.5.3 2.6 3.6 2.6 5.6v2.9H.1V13h2.5v12.7h5.3V13h3.6l.4-4.5z" /></symbol><symbol fill="none" viewBox="0 0 24 24" id="insta"><path clip-rule="evenodd" d="M4.8.3h14.4c2.5 0 4.5 2 4.5 4.5V19.2c0 2.5-2 4.5-4.5 4.5H4.8c-2.5 0-4.5-2-4.5-4.5V4.8C.3 2.3 2.3.3 4.8.3zM21 3h-4v4h4V3zM8.7 9.6c.7-1 2-1.7 3.3-1.7 1.3 0 2.6.7 3.3 1.7.5.7.8 1.5.8 2.4 0 2.3-1.9 4.1-4.1 4.1-2.2 0-4.1-1.8-4.1-4.1 0-.9.3-1.7.8-2.4zm10.5 11.8c1.2 0 2.2-1 2.2-2.2V9.6h-3.5c.3.7.5 1.6.5 2.4 0 3.5-2.9 6.4-6.4 6.4-3.5 0-6.4-2.9-6.4-6.4 0-.8.2-1.7.5-2.4H2.6v9.6c0 1.2 1 2.2 2.2 2.2h14.4z" /></symbol><symbol fill="none" viewBox="0 0 25 15" id="vk"><path clip-rule="evenodd" d="M20.726 7.163S24.014 2.525 24.34 1c.11-.544-.13-.849-.696-.849h-2.852c-.654 0-.893.283-1.089.697 0 0-1.542 3.286-3.418 5.356-.602.67-.909.87-1.241.87-.268 0-.392-.223-.392-.827V.958c0-.74-.087-.958-.696-.958H9.384c-.349 0-.567.203-.567.479 0 .697 1.067.854 1.067 2.743V7.12c0 .784-.043 1.089-.413 1.089-.98 0-3.31-3.375-4.616-7.207C4.594.218 4.311 0 3.571 0H.719C.305 0 0 .283 0 .697c0 .762.893 4.289 4.398 9.013 2.351 3.179 5.443 4.898 8.23 4.898 1.698 0 2.111-.282 2.111-1.001v-2.438c0-.61.24-.871.588-.871.392 0 1.084.126 2.7 1.72 1.916 1.829 2.046 2.59 3.091 2.59h3.2c.327 0 .632-.152.632-.696 0-.719-.936-2.003-2.373-3.527-.588-.784-1.546-1.633-1.85-2.025-.436-.457-.305-.718 0-1.197z" /></symbol></defs><use id="arrow-next-usage" xlink:href="#arrow-next" class="sprite-symbol-usage" /><use id="arrow-prev-usage" xlink:href="#arrow-prev" class="sprite-symbol-usage" /><use id="close-usage" xlink:href="#close" class="sprite-symbol-usage" /><use id="fb-usage" xlink:href="#fb" class="sprite-symbol-usage" /><use id="insta-usage" xlink:href="#insta" class="sprite-symbol-usage" /><use id="vk-usage" xlink:href="#vk" class="sprite-symbol-usage" /></svg>