<?xml version="1.0" encoding="utf-8"?>
<svg width="0" height="0" xmlns="http://www.w3.org/2000/svg" xmlns:xlink="http://www.w3.org/1999/xlink">
  <symbol stroke="none" viewBox="0 0 512 512" id="chevron-down">
    <path d="M505.183 123.179c-9.087-9.087-23.824-9.089-32.912.002l-216.266 216.27L39.729 123.179c-9.087-9.087-23.824-9.089-32.912.002-9.089 9.089-9.089 23.824 0 32.912L239.55 388.82a23.271 23.271 0 0 0 32.91-.001l232.721-232.727c9.091-9.088 9.091-23.824.002-32.913z"></path>
  </symbol>
  <symbol stroke="none" viewBox="0 0 511.999 511.999" id="chevron-left">
    <path d="M172.548 256.005 388.82 39.729c9.089-9.089 9.089-23.824 0-32.912s-23.824-9.089-32.912.002L123.18 239.551a23.26 23.26 0 0 0-6.817 16.454 23.275 23.275 0 0 0 6.817 16.457l232.727 232.721c4.543 4.544 10.499 6.816 16.455 6.816s11.913-2.271 16.457-6.817c9.089-9.089 9.089-23.824 0-32.912L172.548 256.005z"></path>
  </symbol>
  <symbol stroke="none" viewBox="0 0 512.001 512.001" id="chevron-right">
    <path d="M388.819 239.537 156.092 6.816c-9.087-9.089-23.824-9.089-32.912.002-9.087 9.089-9.087 23.824.002 32.912l216.27 216.266-216.273 216.276c-9.087 9.089-9.087 23.824.002 32.912A23.195 23.195 0 0 0 139.636 512a23.194 23.194 0 0 0 16.457-6.817L388.819 272.45a23.27 23.27 0 0 0 0-32.913z"></path>
  </symbol>
  <symbol stroke="none" viewBox="0 0 512 512" id="chevron-up">
    <path d="M505.183 355.907 272.45 123.179a23.27 23.27 0 0 0-32.912.001L6.817 355.908c-9.089 9.089-9.089 23.824 0 32.912 9.087 9.087 23.824 9.089 32.912 0l216.266-216.27 216.277 216.27c4.544 4.544 10.501 6.816 16.457 6.816s11.913-2.271 16.457-6.817c9.086-9.089 9.086-23.824-.003-32.912z"></path>
  </symbol>
  <symbol stroke="none" viewBox="0 0 409.806 409.806" id="close">
    <path d="M228.929 205.01 404.596 29.343c6.78-6.548 6.968-17.352.42-24.132-6.548-6.78-17.352-6.968-24.132-.42-.142.137-.282.277-.42.42L204.796 180.878 29.129 5.21c-6.78-6.548-17.584-6.36-24.132.42-6.388 6.614-6.388 17.099 0 23.713L180.664 205.01 4.997 380.677c-6.663 6.664-6.663 17.468 0 24.132 6.664 6.662 17.468 6.662 24.132 0l175.667-175.667 175.667 175.667c6.78 6.548 17.584 6.36 24.132-.42 6.387-6.614 6.387-17.099 0-23.712L228.929 205.01z"></path>
  </symbol>
  <symbol stroke="none" viewBox="0 0 12 26" id="fb">
    <path clip-rule="evenodd" d="M11.9 8.5h-4V5.9c0-1 .7-1.2 1.1-1.2h2.8V.3H7.9C3.5.3 2.6 3.6 2.6 5.6v2.9H.1V13h2.5v12.7h5.3V13h3.6l.4-4.5Z"></path>
  </symbol>
  <symbol stroke="none" viewBox="0 0 24 24" id="insta">
    <path fill-rule="evenodd" clip-rule="evenodd" d="M4.8.3h14.4c2.5 0 4.5 2 4.5 4.5v14.4c0 2.5-2 4.5-4.5 4.5H4.8c-2.5 0-4.5-2-4.5-4.5V4.8C.3 2.3 2.3.3 4.8.3ZM21 3h-4v4h4V3ZM8.7 9.6c.7-1 2-1.7 3.3-1.7 1.3 0 2.6.7 3.3 1.7.5.7.8 1.5.8 2.4 0 2.3-1.9 4.1-4.1 4.1-2.2 0-4.1-1.8-4.1-4.1 0-.9.3-1.7.8-2.4Zm10.5 11.8c1.2 0 2.2-1 2.2-2.2V9.6h-3.5c.3.7.5 1.6.5 2.4 0 3.5-2.9 6.4-6.4 6.4-3.5 0-6.4-2.9-6.4-6.4 0-.8.2-1.7.5-2.4H2.6v9.6c0 1.2 1 2.2 2.2 2.2h14.4Z"></path>
  </symbol>
  <symbol stroke="none" viewBox="0 0 56.966 56.966" id="search">
    <path d="M55.146 51.887 41.588 37.786A22.926 22.926 0 0 0 46.984 23c0-12.682-10.318-23-23-23s-23 10.318-23 23 10.318 23 23 23c4.761 0 9.298-1.436 13.177-4.162l13.661 14.208c.571.593 1.339.92 2.162.92.779 0 1.518-.297 2.079-.837a3.004 3.004 0 0 0 .083-4.242zM23.984 6c9.374 0 17 7.626 17 17s-7.626 17-17 17-17-7.626-17-17 7.626-17 17-17z"></path>
  </symbol>
  <symbol stroke="none" viewBox="0 0 24 24" id="telegram">
    <path d="m9.417 15.181-.397 5.584c.568 0 .814-.244 1.109-.537l2.663-2.545 5.518 4.041c1.012.564 1.725.267 1.998-.931L23.93 3.821l.001-.001c.321-1.496-.541-2.081-1.527-1.714l-21.29 8.151c-1.453.564-1.431 1.374-.247 1.741l5.443 1.693L18.953 5.78c.595-.394 1.136-.176.691.218z"></path>
  </symbol>
  <symbol stroke="none" viewBox="0 0 19.738 19.738" id="user">
    <path d="M18.18 19.738h-2c0-3.374-2.83-6.118-6.311-6.118s-6.31 2.745-6.31 6.118h-2c0-4.478 3.729-8.118 8.311-8.118 4.581 0 8.31 3.64 8.31 8.118zM9.87 10.97a5.492 5.492 0 0 1-5.484-5.485A5.49 5.49 0 0 1 9.87 0c3.025 0 5.486 2.46 5.486 5.485S12.895 10.97 9.87 10.97zm0-8.97C7.948 2 6.385 3.563 6.385 5.485S7.948 8.97 9.87 8.97c1.923 0 3.486-1.563 3.486-3.485S11.791 2 9.87 2z"></path>
  </symbol>
  <symbol stroke="none" viewBox="0 0 25 15" id="vk">
    <path clip-rule="evenodd" d="M20.726 7.163S24.014 2.525 24.34 1c.11-.544-.13-.849-.696-.849h-2.852c-.654 0-.893.283-1.089.697 0 0-1.542 3.286-3.418 5.356-.602.67-.909.87-1.241.87-.268 0-.392-.223-.392-.827V.958c0-.74-.087-.958-.696-.958H9.384c-.349 0-.567.203-.567.479 0 .697 1.067.854 1.067 2.743V7.12c0 .784-.043 1.089-.413 1.089-.98 0-3.31-3.375-4.616-7.207C4.594.218 4.311 0 3.571 0H.719C.305 0 0 .283 0 .697c0 .762.893 4.289 4.398 9.013 2.351 3.179 5.443 4.898 8.23 4.898 1.698 0 2.111-.282 2.111-1.001v-2.438c0-.61.24-.871.588-.871.392 0 1.084.126 2.7 1.72 1.916 1.829 2.046 2.59 3.091 2.59h3.2c.327 0 .632-.152.632-.696 0-.719-.936-2.003-2.373-3.527-.588-.784-1.546-1.633-1.85-2.025-.436-.457-.305-.718 0-1.197Z"></path>
  </symbol>
  <symbol stroke="none" viewBox="0 -77 512.002 512" id="youtube">
    <path d="M501.453 56.094c-5.902-21.934-23.195-39.223-45.125-45.13C416.262 0 255.996 0 255.996 0S95.734 0 55.668 10.547C34.16 16.449 16.445 34.164 10.543 56.094 0 96.156 0 179.242 0 179.242s0 83.504 10.543 123.149c5.906 21.93 23.195 39.222 45.129 45.129C96.156 358.484 256 358.484 256 358.484s160.262 0 200.328-10.546c21.934-5.903 39.223-23.196 45.129-45.125C512 262.745 512 179.663 512 179.663s.422-83.508-10.547-123.57zm0 0"></path>
    <path d="m204.969 256 133.27-76.758-133.27-76.758zm0 0" fill="#fff"></path>
  </symbol>
</svg>