<?xml version="1.0" encoding="utf-8"?>
<svg xmlns="http://www.w3.org/2000/svg" xmlns:xlink="http://www.w3.org/1999/xlink">
  <symbol viewBox="0 0 512.002 512.002" id="arrow-next" stroke="none">
    <path d="M388.425 241.951L151.609 5.79c-7.759-7.733-20.321-7.72-28.067.04-7.74 7.759-7.72 20.328.04 28.067l222.72 222.105-222.728 222.104c-7.759 7.74-7.779 20.301-.04 28.061a19.8 19.8 0 0014.057 5.835 19.79 19.79 0 0014.017-5.795l236.817-236.155c3.737-3.718 5.834-8.778 5.834-14.05s-2.103-10.326-5.834-14.051z"></path>
  </symbol>

  <symbol viewBox="0 0 443.52 443.52" id="arrow-prev" stroke="none">
    <path d="M143.492 221.863L336.226 29.129c6.663-6.664 6.663-17.468 0-24.132-6.665-6.662-17.468-6.662-24.132 0l-204.8 204.8c-6.662 6.664-6.662 17.468 0 24.132l204.8 204.8c6.78 6.548 17.584 6.36 24.132-.42 6.387-6.614 6.387-17.099 0-23.712L143.492 221.863z"></path>
  </symbol>

  <symbol viewBox="0 0 409.806 409.806" id="close" stroke="none">
    <path d="M228.929 205.01L404.596 29.343c6.78-6.548 6.968-17.352.42-24.132-6.548-6.78-17.352-6.968-24.132-.42-.142.137-.282.277-.42.42L204.796 180.878 29.129 5.21c-6.78-6.548-17.584-6.36-24.132.42-6.388 6.614-6.388 17.099 0 23.713L180.664 205.01 4.997 380.677c-6.663 6.664-6.663 17.468 0 24.132 6.664 6.662 17.468 6.662 24.132 0l175.667-175.667 175.667 175.667c6.78 6.548 17.584 6.36 24.132-.42 6.387-6.614 6.387-17.099 0-23.712L228.929 205.01z"></path>
  </symbol>

  <symbol viewBox="0 0 12 26" id="fb" stroke="none">
    <path clip-rule="evenodd" d="M11.9 8.5h-4V5.9c0-1 .7-1.2 1.1-1.2h2.8V.3H7.9C3.5.3 2.6 3.6 2.6 5.6v2.9H.1V13h2.5v12.7h5.3V13h3.6l.4-4.5z"></path>
  </symbol>

  <symbol viewBox="0 0 24 24" id="insta" stroke="none">
    <path fill-rule="evenodd" clip-rule="evenodd" d="M4.80005 0.300049H19.2C21.7 0.300049 23.7 2.30005 23.7 4.80005V9.60005V19.2C23.7 21.7 21.7 23.7 19.2 23.7H4.80005C2.30005 23.7 0.300049 21.7 0.300049 19.2V9.60005V4.80005C0.300049 2.30005 2.30005 0.300049 4.80005 0.300049ZM21 3.00005H20.5H17V7.00005H21V3.50005V3.00005ZM8.70005 9.60005C9.40005 8.60005 10.7 7.90005 12 7.90005C13.3 7.90005 14.6 8.60005 15.3 9.60005C15.8 10.3 16.1 11.1 16.1 12C16.1 14.3 14.2 16.1 12 16.1C9.80005 16.1 7.90005 14.3 7.90005 12C7.90005 11.1 8.20005 10.3 8.70005 9.60005ZM19.2 21.4C20.4 21.4 21.4 20.4 21.4 19.2001V9.60005H17.9C18.2 10.3 18.4 11.2 18.4 12C18.4 15.5 15.5 18.4 12 18.4C8.50005 18.4 5.60005 15.5 5.60005 12C5.60005 11.2 5.80005 10.3 6.10005 9.60005H2.60005V19.2001C2.60005 20.4 3.60005 21.4 4.80005 21.4H19.2Z"/>
  </symbol>

  <symbol viewBox="0 0 25 15" id="vk" stroke="none">
    <path clip-rule="evenodd" d="M20.726 7.163S24.014 2.525 24.34 1c.11-.544-.13-.849-.696-.849h-2.852c-.654 0-.893.283-1.089.697 0 0-1.542 3.286-3.418 5.356-.602.67-.909.87-1.241.87-.268 0-.392-.223-.392-.827V.958c0-.74-.087-.958-.696-.958H9.384c-.349 0-.567.203-.567.479 0 .697 1.067.854 1.067 2.743V7.12c0 .784-.043 1.089-.413 1.089-.98 0-3.31-3.375-4.616-7.207C4.594.218 4.311 0 3.571 0H.719C.305 0 0 .283 0 .697c0 .762.893 4.289 4.398 9.013 2.351 3.179 5.443 4.898 8.23 4.898 1.698 0 2.111-.282 2.111-1.001v-2.438c0-.61.24-.871.588-.871.392 0 1.084.126 2.7 1.72 1.916 1.829 2.046 2.59 3.091 2.59h3.2c.327 0 .632-.152.632-.696 0-.719-.936-2.003-2.373-3.527-.588-.784-1.546-1.633-1.85-2.025-.436-.457-.305-.718 0-1.197z"></path>
  </symbol>

  <symbol viewBox="0 0 24 24" id="telegram" stroke="none">
    <path d="M9.417 15.181l-.397 5.584c.568 0 .814-.244 1.109-.537l2.663-2.545 5.518 4.041c1.012.564 1.725.267 1.998-.931L23.93 3.821l.001-.001c.321-1.496-.541-2.081-1.527-1.714l-21.29 8.151c-1.453.564-1.431 1.374-.247 1.741l5.443 1.693L18.953 5.78c.595-.394 1.136-.176.691.218z"></path>
  </symbol>

  <symbol viewBox="0 -77 512.002 512" id="youtube" stroke="none">
    <path d="M501.453 56.094c-5.902-21.934-23.195-39.223-45.125-45.13C416.262 0 255.996 0 255.996 0S95.734 0 55.668 10.547C34.16 16.449 16.445 34.164 10.543 56.094 0 96.156 0 179.242 0 179.242s0 83.504 10.543 123.149c5.906 21.93 23.195 39.222 45.129 45.129C96.156 358.484 256 358.484 256 358.484s160.262 0 200.328-10.546c21.934-5.903 39.223-23.196 45.129-45.125C512 262.745 512 179.663 512 179.663s.422-83.508-10.547-123.57zm0 0"></path>
    <path d="M204.969 256l133.27-76.758-133.27-76.758zm0 0" fill="#fff"></path>
  </symbol>

  <symbol viewBox="0 0 19.738 19.738" id="user" stroke="none">
    <path d="M18.18 19.738h-2c0-3.374-2.83-6.118-6.311-6.118s-6.31 2.745-6.31 6.118h-2c0-4.478 3.729-8.118 8.311-8.118 4.581 0 8.31 3.64 8.31 8.118zM9.87 10.97a5.492 5.492 0 01-5.484-5.485A5.49 5.49 0 019.87 0c3.025 0 5.486 2.46 5.486 5.485S12.895 10.97 9.87 10.97zm0-8.97C7.948 2 6.385 3.563 6.385 5.485S7.948 8.97 9.87 8.97c1.923 0 3.486-1.563 3.486-3.485S11.791 2 9.87 2z"></path>
  </symbol>

  <symbol viewBox="0 0 284.929 284.929" id="angle-arrow-down" stroke="none">
    <path d="M282.082 76.511l-14.274-14.273c-1.902-1.906-4.093-2.856-6.57-2.856-2.471 0-4.661.95-6.563 2.856L142.466 174.441 30.262 62.241c-1.903-1.906-4.093-2.856-6.567-2.856-2.475 0-4.665.95-6.567 2.856L2.856 76.515C.95 78.417 0 80.607 0 83.082c0 2.473.953 4.663 2.856 6.565l133.043 133.046c1.902 1.903 4.093 2.854 6.567 2.854s4.661-.951 6.562-2.854L282.082 89.647c1.902-1.903 2.847-4.093 2.847-6.565 0-2.475-.945-4.665-2.847-6.571z"></path>
  </symbol>
</svg>