<svg width="24" height="24" viewBox="0 0 24 24" fill="none" xmlns="http://www.w3.org/2000/svg">
<path d="M9.5998 2.3999C8.96329 2.3999 8.35284 2.65276 7.90275 3.10285C7.45266 3.55293 7.1998 4.16338 7.1998 4.7999V16.7999C7.1998 17.4364 7.45266 18.0469 7.90275 18.497C8.35284 18.947 8.96329 19.1999 9.5998 19.1999H16.7998C17.4363 19.1999 18.0468 18.947 18.4969 18.497C18.9469 18.0469 19.1998 17.4364 19.1998 16.7999V4.7999C19.1998 4.16338 18.9469 3.55293 18.4969 3.10285C18.0468 2.65276 17.4363 2.3999 16.7998 2.3999H9.5998ZM8.3998 4.7999C8.3998 4.48164 8.52623 4.17642 8.75128 3.95137C8.97632 3.72633 9.28155 3.5999 9.5998 3.5999H16.7998C17.1181 3.5999 17.4233 3.72633 17.6483 3.95137C17.8734 4.17642 17.9998 4.48164 17.9998 4.7999V16.7999C17.9998 17.1182 17.8734 17.4234 17.6483 17.6484C17.4233 17.8735 17.1181 17.9999 16.7998 17.9999H9.5998C9.28155 17.9999 8.97632 17.8735 8.75128 17.6484C8.52623 17.4234 8.3998 17.1182 8.3998 16.7999V4.7999ZM4.7998 7.1999C4.79982 6.77862 4.91072 6.36477 5.12136 5.99994C5.332 5.6351 5.63497 5.33214 5.9998 5.1215V17.3999C5.9998 18.1956 6.31588 18.9586 6.87848 19.5212C7.44109 20.0838 8.20416 20.3999 8.9998 20.3999H16.4782C16.2676 20.7647 15.9646 21.0677 15.5998 21.2783C15.2349 21.489 14.8211 21.5999 14.3998 21.5999H8.9998C7.8859 21.5999 6.81761 21.1574 6.02996 20.3698C5.2423 19.5821 4.7998 18.5138 4.7998 17.3999V7.1999Z" fill="#F02323"/>
</svg>
